<?xml version="1.0" encoding="utf-8"?>
<!-- Generator: Adobe Illustrator 24.1.0, SVG Export Plug-In . SVG Version: 6.00 Build 0)  -->
<svg version="1.1" id="Layer_1" xmlns="http://www.w3.org/2000/svg" xmlns:xlink="http://www.w3.org/1999/xlink" x="0px" y="0px"
	 viewBox="0 0 447.2 145.3" style="enable-background:new 0 0 447.2 145.3;" xml:space="preserve">
<style type="text/css">
	.st0{fill:#FF0000;}
	.st1{fill:#FFFFFF;}
	.st2{fill:#282828;}
</style>
<g>
	<g>
		<path id="lozenge-path" class="st0" d="M148.6,38.7c-1.5-5.6-5.9-10-11.6-11.6c-10.2-2.7-51-2.7-51-2.7s-40.8,0-51,2.7
			c-5.6,1.5-10,5.9-11.6,11.6c-2.7,10.2-2.7,31.4-2.7,31.4s0,21.3,2.7,31.4c1.5,5.6,5.9,10,11.6,11.6c10.2,2.7,51,2.7,51,2.7
			s40.9,0,51-2.7c5.6-1.5,10-5.9,11.6-11.6c2.7-10.2,2.7-31.4,2.7-31.4S151.4,48.9,148.6,38.7z"/>
		<polygon id="play-polygon" class="st1" points="73,89.8 106.9,70.2 73,50.6 		"/>
	</g>
	<g>
		<g id="youtube-paths">
			<path class="st2" d="M210.3,107.7c-2.6-1.7-4.4-4.4-5.5-8.1c-1.1-3.7-1.6-8.6-1.6-14.7v-8.3c0-6.2,0.6-11.1,1.9-14.9
				s3.2-6.5,5.8-8.2s6.1-2.6,10.4-2.6c4.2,0,7.6,0.9,10.2,2.6s4.4,4.5,5.6,8.2c1.2,3.7,1.8,8.6,1.8,14.8v8.3c0,6.1-0.6,11-1.7,14.7
				s-3,6.4-5.6,8.1c-2.6,1.7-6.1,2.6-10.5,2.6C216.5,110.3,212.9,109.4,210.3,107.7z M224.8,98.7c0.7-1.9,1.1-4.9,1.1-9.1V71.7
				c0-4.1-0.4-7.1-1.1-9c-0.7-1.9-2-2.8-3.8-2.8c-1.7,0-3,1-3.7,2.8c-0.7,1.9-1.1,4.9-1.1,9v17.9c0,4.2,0.3,7.3,1,9.1
				c0.7,1.9,1.9,2.8,3.7,2.8C222.9,101.5,224.1,100.5,224.8,98.7z"/>
			<path class="st2" d="M408.8,85v2.9c0,3.7,0.1,6.4,0.3,8.3c0.2,1.8,0.7,3.2,1.4,4c0.7,0.8,1.7,1.3,3.2,1.3c1.9,0,3.3-0.7,4-2.2
				c0.7-1.5,1.1-4,1.2-7.5l11.1,0.6c0.1,0.5,0.1,1.2,0.1,2.1c0,5.3-1.5,9.2-4.3,11.9c-2.9,2.6-7,3.9-12.3,3.9c-6.4,0-10.8-2-13.4-6
				c-2.6-4-3.8-10.1-3.8-18.5v-10c0-8.6,1.3-14.9,4-18.8c2.6-3.9,7.2-5.9,13.6-5.9c4.4,0,7.8,0.8,10.2,2.4c2.4,1.6,4,4.1,5,7.6
				c1,3.4,1.5,8.2,1.5,14.2V85L408.8,85L408.8,85z M410.4,60.9c-0.6,0.8-1.1,2.1-1.3,4c-0.2,1.8-0.3,4.6-0.3,8.4v4.1h9.4v-4.1
				c0-3.7-0.1-6.5-0.4-8.4s-0.7-3.2-1.4-4s-1.7-1.2-3-1.2C412.1,59.7,411.1,60.1,410.4,60.9z"/>
			<path id="XMLID_41_" class="st2" d="M179,83.9l-14.7-53h12.8l5.1,24c1.3,5.9,2.3,11,2.9,15.1h0.4c0.4-3,1.4-8,2.9-15l5.3-24.1
				h12.8l-14.8,53v25.4H179V83.9z"/>
			<path id="XMLID_38_" class="st2" d="M280.5,52v57.3h-10.1l-1.1-7H269c-2.7,5.3-6.9,7.9-12.3,7.9c-3.8,0-6.6-1.2-8.4-3.7
				c-1.8-2.5-2.7-6.4-2.7-11.7V52h12.9v42c0,2.6,0.3,4.4,0.8,5.5c0.6,1.1,1.5,1.6,2.8,1.6c1.1,0,2.2-0.3,3.2-1
				c1-0.7,1.8-1.6,2.3-2.6V52H280.5z"/>
			<path id="XMLID_36_" class="st2" d="M346.7,52v57.3h-10.1l-1.1-7h-0.3c-2.7,5.3-6.9,7.9-12.3,7.9c-3.8,0-6.6-1.2-8.4-3.7
				c-1.8-2.5-2.7-6.4-2.7-11.7V52h12.9v42c0,2.6,0.3,4.4,0.8,5.5c0.6,1.1,1.5,1.6,2.8,1.6c1.1,0,2.2-0.3,3.2-1
				c1-0.7,1.8-1.6,2.3-2.6V52H346.7z"/>
			<path id="XMLID_35_" class="st2" d="M315.6,41.3h-12.8v68h-12.6v-68h-12.8V30.9h38.2L315.6,41.3L315.6,41.3z"/>
			<path class="st2" d="M389.3,61.2c-0.8-3.6-2-6.2-3.8-7.9c-1.7-1.6-4.1-2.4-7.2-2.4c-2.4,0-4.6,0.7-6.6,2
				c-2.1,1.3-3.6,3.1-4.8,5.3h-0.1V28h-12.4v81.3h10.6l1.3-5.4h0.3c1,1.9,2.5,3.5,4.5,4.6c2,1.1,4.2,1.7,6.6,1.7c4.4,0,7.6-2,9.6-6
				s3.1-10.3,3.1-18.8v-9.1C390.5,69.8,390.1,64.8,389.3,61.2z M377.5,84.6c0,4.2-0.2,7.4-0.5,9.8c-0.3,2.4-0.9,4.1-1.7,5.1
				c-0.8,1-1.9,1.5-3.3,1.5c-1.1,0-2-0.2-3-0.7c-0.9-0.5-1.6-1.2-2.2-2.2V65.4c0.4-1.6,1.2-2.8,2.2-3.8s2.2-1.5,3.5-1.5
				c1.3,0,2.3,0.5,3,1.5s1.2,2.8,1.5,5.2c0.3,2.4,0.4,5.9,0.4,10.4L377.5,84.6L377.5,84.6z"/>
		</g>
	</g>
</g>
</svg>
